ply
format ascii 1.0
comment ledeaTintin (c) dept-INFO-iut-Lille
comment faces a 3 sommets avec couleurs RGB
element vertex 10
property float x
property float y
property float z
element face 16
property list uchar int vertex_indices
property uchar red
property uchar green
property uchar blue
end_header
  0.100   0.054   0.131 
  0.100  -1.477   3.826 
  0.100   3.750   1.661 
  0.100   2.219   5.357 
  4.100   0.054   0.131 
  4.100  -1.477   3.826 
  4.100   3.750   1.661 
  4.100   2.602   4.433 
  4.100   0.833   4.783 
  2.100   2.219   5.357 
3 0 1 3 255 128 128
3 0 3 2 255 128 128
3 4 6 7 255 192 192
3 4 7 8 255 192 192
3 4 8 5 255 192 192
3 0 4 5 128 255 128
3 0 5 1 128 255 128
3 2 3 9 192 255 192
3 2 9 7 192 255 192
3 2 7 6 192 255 192
3 0 2 6 128 128 255
3 0 6 4 128 128 255
3 1 5 8 192 192 255
3 1 8 9 192 192 255
3 1 9 3 192 192 255
3 7 9 8 128 128 128