ply
format ascii 1.0
comment ledeaTintin (c) dept-INFO-iut-Lille
comment faces a 3 sommets avec couleurs RGB
element vertex 10
property float x
property float y
property float z
element face 16
property list uchar int vertex_indices
property uchar red
property uchar green
property uchar blue
end_header
 -2.000  -1.082  -2.613 
 -2.000  -2.613   1.082 
 -2.000   2.613  -1.082 
 -2.000   1.082   2.613 
  2.000  -1.082  -2.613 
  2.000  -2.613   1.082 
  2.000   2.613  -1.082 
  2.000   1.465   1.689 
  2.000  -0.303   2.039 
  0.000   1.082   2.613 
3 0 1 3 255 128 128
3 0 3 2 255 128 128
3 4 6 7 255 192 192
3 4 7 8 255 192 192
3 4 8 5 255 192 192
3 0 4 5 128 255 128
3 0 5 1 128 255 128
3 2 3 9 192 255 192
3 2 9 7 192 255 192
3 2 7 6 192 255 192
3 0 2 6 128 128 255
3 0 6 4 128 128 255
3 1 5 8 192 192 255
3 1 8 9 192 192 255
3 1 9 3 192 192 255
3 7 9 8 128 128 128